<?xml version="1.0" standalone="no"?>
<!DOCTYPE svg PUBLIC "-//W3C//DTD SVG 20010904//EN"
 "http://www.w3.org/TR/2001/REC-SVG-20010904/DTD/svg10.dtd">
<svg version="1.0" xmlns="http://www.w3.org/2000/svg"
 width="1024.000000pt" height="1024.000000pt" viewBox="0 0 1024.000000 1024.000000"
 preserveAspectRatio="xMidYMid meet">

<g transform="translate(0.000000,1024.000000) scale(0.100000,-0.100000)"
fill="#000000" stroke="none">
<path d="M1677 9023 c-4 -3 -7 -843 -7 -1865 l0 -1858 1580 0 1580 0 0 380 0
380 -1086 2 -1086 3 -1 358 -2 357 953 0 952 0 0 370 0 371 -952 -1 -953 -2
-3 359 -2 358 1085 -2 1085 -1 0 399 0 399 -1568 0 c-863 0 -1572 -3 -1575 -7z"/>
<path d="M5370 7166 l0 -1863 1430 -2 1430 -2 2 380 3 381 -950 2 -950 3 -3
360 -2 360 800 -3 800 -2 0 370 0 371 -800 -3 -800 -3 0 360 0 360 928 0 927
0 3 398 2 397 -1410 0 -1410 0 0 -1864z"/>
<path d="M3094 5029 c-641 -49 -1088 -364 -1201 -845 -27 -119 -25 -418 6
-529 45 -168 151 -341 269 -443 215 -184 442 -274 1140 -453 402 -102 496
-137 583 -216 126 -114 124 -314 -3 -428 -52 -48 -164 -101 -253 -120 -100
-23 -293 -30 -400 -16 -111 15 -250 60 -326 107 -119 72 -213 206 -239 342
l-13 62 -454 0 -455 0 7 -62 c20 -198 56 -329 130 -476 193 -385 595 -619
1167 -681 123 -14 474 -14 593 -1 313 35 557 116 770 258 118 78 191 145 265
244 138 182 197 355 207 604 15 350 -101 617 -347 803 -196 148 -401 223
-1138 417 -316 83 -415 117 -500 175 -69 46 -108 99 -123 170 -29 135 47 271
191 344 181 92 523 88 725 -8 152 -73 225 -173 269 -369 l6 -28 428 0 427 0
-6 100 c-24 347 -173 605 -462 797 -218 145 -492 227 -848 252 -160 12 -265
12 -415 0z"/>
<path d="M5370 3140 l0 -1790 455 0 455 0 0 643 0 642 242 -5 242 -5 367 -635
368 -635 496 -3 c404 -2 496 0 492 11 -2 7 -139 231 -302 497 -436 711 -515
840 -515 848 0 4 38 24 85 46 306 140 532 402 611 711 32 122 44 389 25 526
-67 475 -389 793 -906 898 -178 36 -329 41 -1236 41 l-879 0 0 -1790z m1755
1065 c100 -19 209 -72 265 -127 88 -88 133 -245 111 -389 -29 -187 -134 -296
-338 -351 -71 -19 -112 -21 -480 -25 l-403 -5 0 458 0 459 382 -2 c294 -2 402
-7 463 -18z"/>
</g>
</svg>
